<svg width="200" height="152" viewBox="0 0 200 152" fill="none" xmlns="http://www.w3.org/2000/svg">
<path d="M102.216 57.5715C102.216 29.9573 124.601 7.57153 152.216 7.57153H191.584V143.859H152.216C124.601 143.859 102.216 121.473 102.216 93.859V57.5715Z" fill="black"/>
<path d="M150.701 4.53577H194.285V146.895H150.701C123.501 146.895 101.451 124.845 101.451 97.6448V53.7858C101.451 26.5858 123.501 4.53577 150.701 4.53577Z" stroke="black" stroke-width="1.5"/>
<path d="M150.701 0.5H199.5V150.931H150.701C123.363 150.931 101.201 128.769 101.201 101.431V50C101.201 22.6619 123.363 0.5 150.701 0.5Z" stroke="black"/>
<path d="M152.216 12.3573H185.821V139.073H152.216C125.154 139.073 103.216 117.135 103.216 90.0732V61.3573C103.216 34.2954 125.154 12.3573 152.216 12.3573Z" stroke="white" stroke-width="2"/>
<path d="M8.32874 7.57153H49.1871C76.8013 7.57153 99.1871 29.9573 99.1871 57.5715V93.8591C99.1871 121.473 76.8013 143.859 49.1871 143.859H8.32874V7.57153Z" fill="black"/>
<path d="M5.29297 4.53577H50.449C77.649 4.53577 99.699 26.5857 99.699 53.7858V97.6447C99.699 124.845 77.649 146.895 50.449 146.895H5.29297V4.53577Z" stroke="black" stroke-width="1.5"/>
<path d="M11.6001 12.3573H46.4107C73.4727 12.3573 95.4107 34.2953 95.4107 61.3573V90.0732C95.4107 117.135 73.4727 139.073 46.4107 139.073H11.6001V12.3573Z" stroke="white" stroke-width="2"/>
<path d="M0.5 0.5H50.9537C78.2918 0.5 100.454 22.6619 100.454 50V101.431C100.454 128.769 78.2918 150.931 50.9537 150.931H0.5V0.5Z" stroke="black"/>
</svg>
