<svg width="26" height="26" viewBox="0 0 26 26" fill="none" xmlns="http://www.w3.org/2000/svg">
<path d="M18.4165 6.54168H17.9165V7.54168H18.4165V6.54168ZM18.9133 18.4361L18.4154 18.481L18.5051 19.4769L19.0031 19.4321L18.9133 18.4361ZM18.4165 9.79168H17.9165V10.7917H18.4165V9.79168ZM18.4165 15.2083H17.9165V16.2083H18.4165V15.2083ZM16.2082 2.70834V2.20834H15.2082V2.70834H16.2082ZM15.7082 23.2917V23.7917H16.2082V23.2917H15.7082ZM15.4374 23.2917L15.0757 23.6369L15.2234 23.7917H15.4374V23.2917ZM14.8713 22.6984L15.233 22.3533L15.2329 22.3532L14.8713 22.6984ZM1.62488 17.3333H1.12488V17.8333H1.62488V17.3333ZM2.12488 8.66669V8.16669H1.12488V8.66669H2.12488ZM2.33308 8.16669H1.83308V9.16669H2.33308V8.16669ZM14.8713 3.25001L14.5256 2.88874L14.5203 2.89379L14.5152 2.89898L14.8713 3.25001ZM15.783 3.06961C15.9826 2.87871 15.9895 2.5622 15.7986 2.36268C15.6077 2.16316 15.2912 2.15617 15.0917 2.34707L15.783 3.06961ZM18.4165 7.54168C21.4311 7.54168 23.8749 9.98544 23.8749 13H24.8749C24.8749 9.43316 21.9834 6.54168 18.4165 6.54168V7.54168ZM23.8749 13C23.8749 15.847 21.6948 18.1855 18.9133 18.4361L19.0031 19.4321C22.2953 19.1354 24.8749 16.3692 24.8749 13H23.8749ZM18.4165 10.7917C19.6362 10.7917 20.6249 11.7804 20.6249 13H21.6249C21.6249 11.2281 20.1884 9.79168 18.4165 9.79168V10.7917ZM20.6249 13C20.6249 14.2196 19.6362 15.2083 18.4165 15.2083V16.2083C20.1884 16.2083 21.6249 14.7719 21.6249 13H20.6249ZM15.7082 15.7083C16.2082 15.7083 16.2082 15.7083 16.2082 15.7083C16.2082 15.7082 16.2082 15.7081 16.2082 15.708C16.2082 15.7079 16.2082 15.7077 16.2082 15.7075C16.2082 15.7074 16.2082 15.7071 16.2082 15.7069C16.2082 15.7067 16.2082 15.7064 16.2082 15.7061C16.2082 15.7058 16.2082 15.7055 16.2082 15.7051C16.2082 15.7047 16.2082 15.7043 16.2082 15.7039C16.2082 15.7035 16.2082 15.7031 16.2082 15.7026C16.2082 15.7021 16.2082 15.7016 16.2082 15.7011C16.2082 15.7005 16.2082 15.7 16.2082 15.6994C16.2082 15.6988 16.2082 15.6981 16.2082 15.6975C16.2082 15.6968 16.2082 15.6961 16.2082 15.6954C16.2082 15.6947 16.2082 15.694 16.2082 15.6932C16.2082 15.6924 16.2082 15.6916 16.2082 15.6908C16.2082 15.69 16.2082 15.6891 16.2082 15.6882C16.2082 15.6873 16.2082 15.6864 16.2082 15.6855C16.2082 15.6845 16.2082 15.6835 16.2082 15.6825C16.2082 15.6815 16.2082 15.6805 16.2082 15.6794C16.2082 15.6784 16.2082 15.6773 16.2082 15.6762C16.2082 15.675 16.2082 15.6739 16.2082 15.6727C16.2082 15.6715 16.2082 15.6703 16.2082 15.6691C16.2082 15.6679 16.2082 15.6666 16.2082 15.6653C16.2082 15.664 16.2082 15.6627 16.2082 15.6614C16.2082 15.66 16.2082 15.6586 16.2082 15.6572C16.2082 15.6558 16.2082 15.6544 16.2082 15.6529C16.2082 15.6515 16.2082 15.65 16.2082 15.6485C16.2082 15.6469 16.2082 15.6454 16.2082 15.6438C16.2082 15.6423 16.2082 15.6406 16.2082 15.639C16.2082 15.6374 16.2082 15.6357 16.2082 15.634C16.2082 15.6324 16.2082 15.6306 16.2082 15.6289C16.2082 15.6272 16.2082 15.6254 16.2082 15.6236C16.2082 15.6218 16.2082 15.62 16.2082 15.6181C16.2082 15.6163 16.2082 15.6144 16.2082 15.6125C16.2082 15.6106 16.2082 15.6086 16.2082 15.6067C16.2082 15.6047 16.2082 15.6027 16.2082 15.6007C16.2082 15.5987 16.2082 15.5966 16.2082 15.5946C16.2082 15.5925 16.2082 15.5904 16.2082 15.5883C16.2082 15.5862 16.2082 15.584 16.2082 15.5818C16.2082 15.5796 16.2082 15.5774 16.2082 15.5752C16.2082 15.573 16.2082 15.5707 16.2082 15.5684C16.2082 15.5661 16.2082 15.5638 16.2082 15.5615C16.2082 15.5591 16.2082 15.5567 16.2082 15.5543C16.2082 15.5519 16.2082 15.5495 16.2082 15.5471C16.2082 15.5446 16.2082 15.5421 16.2082 15.5396C16.2082 15.5371 16.2082 15.5346 16.2082 15.532C16.2082 15.5295 16.2082 15.5269 16.2082 15.5243C16.2082 15.5217 16.2082 15.519 16.2082 15.5164C16.2082 15.5137 16.2082 15.511 16.2082 15.5083C16.2082 15.5056 16.2082 15.5028 16.2082 15.5001C16.2082 15.4973 16.2082 15.4945 16.2082 15.4917C16.2082 15.4889 16.2082 15.486 16.2082 15.4831C16.2082 15.4803 16.2082 15.4774 16.2082 15.4744C16.2082 15.4715 16.2082 15.4686 16.2082 15.4656C16.2082 15.4626 16.2082 15.4596 16.2082 15.4566C16.2082 15.4535 16.2082 15.4505 16.2082 15.4474C16.2082 15.4443 16.2082 15.4412 16.2082 15.4381C16.2082 15.435 16.2082 15.4318 16.2082 15.4286C16.2082 15.4254 16.2082 15.4222 16.2082 15.419C16.2082 15.4157 16.2082 15.4125 16.2082 15.4092C16.2082 15.4059 16.2082 15.4026 16.2082 15.3993C16.2082 15.3959 16.2082 15.3926 16.2082 15.3892C16.2082 15.3858 16.2082 15.3824 16.2082 15.3789C16.2082 15.3755 16.2082 15.372 16.2082 15.3685C16.2082 15.365 16.2082 15.3615 16.2082 15.358C16.2082 15.3544 16.2082 15.3509 16.2082 15.3473C16.2082 15.3437 16.2082 15.3401 16.2082 15.3364C16.2082 15.3328 16.2082 15.3291 16.2082 15.3254C16.2082 15.3218 16.2082 15.318 16.2082 15.3143C16.2082 15.3106 16.2082 15.3068 16.2082 15.303C16.2082 15.2992 16.2082 15.2954 16.2082 15.2916C16.2082 15.2877 16.2082 15.2839 16.2082 15.28C16.2082 15.2761 16.2082 15.2722 16.2082 15.2682C16.2082 15.2643 16.2082 15.2603 16.2082 15.2564C16.2082 15.2524 16.2082 15.2484 16.2082 15.2443C16.2082 15.2403 16.2082 15.2362 16.2082 15.2322C16.2082 15.2281 16.2082 15.224 16.2082 15.2198C16.2082 15.2157 16.2082 15.2116 16.2082 15.2074C16.2082 15.2032 16.2082 15.199 16.2082 15.1948C16.2082 15.1905 16.2082 15.1863 16.2082 15.182C16.2082 15.1777 16.2082 15.1734 16.2082 15.1691C16.2082 15.1648 16.2082 15.1604 16.2082 15.1561C16.2082 15.1517 16.2082 15.1473 16.2082 15.1429C16.2082 15.1385 16.2082 15.134 16.2082 15.1296C16.2082 15.1251 16.2082 15.1206 16.2082 15.1161C16.2082 15.1116 16.2082 15.1071 16.2082 15.1025C16.2082 15.0979 16.2082 15.0934 16.2082 15.0888C16.2082 15.0842 16.2082 15.0795 16.2082 15.0749C16.2082 15.0702 16.2082 15.0655 16.2082 15.0608C16.2082 15.0562 16.2082 15.0514 16.2082 15.0467C16.2082 15.0419 16.2082 15.0372 16.2082 15.0324C16.2082 15.0276 16.2082 15.0228 16.2082 15.0179C16.2082 15.0131 16.2082 15.0082 16.2082 15.0034C16.2082 14.9985 16.2082 14.9936 16.2082 14.9887C16.2082 14.9837 16.2082 14.9788 16.2082 14.9738C16.2082 14.9688 16.2082 14.9638 16.2082 14.9588C16.2082 14.9538 16.2082 14.9488 16.2082 14.9437C16.2082 14.9386 16.2082 14.9335 16.2082 14.9284C16.2082 14.9233 16.2082 14.9182 16.2082 14.913C16.2082 14.9079 16.2082 14.9027 16.2082 14.8975C16.2082 14.8923 16.2082 14.8871 16.2082 14.8818C16.2082 14.8766 16.2082 14.8713 16.2082 14.8661C16.2082 14.8608 16.2082 14.8555 16.2082 14.8501C16.2082 14.8448 16.2082 14.8394 16.2082 14.8341C16.2082 14.8287 16.2082 14.8233 16.2082 14.8179C16.2082 14.8125 16.2082 14.807 16.2082 14.8016C16.2082 14.7961 16.2082 14.7906 16.2082 14.7851C16.2082 14.7796 16.2082 14.7741 16.2082 14.7685C16.2082 14.763 16.2082 14.7574 16.2082 14.7518C16.2082 14.7462 16.2082 14.7406 16.2082 14.735C16.2082 14.7293 16.2082 14.7237 16.2082 14.718C16.2082 14.7123 16.2082 14.7066 16.2082 14.7009C16.2082 14.6952 16.2082 14.6894 16.2082 14.6837C16.2082 14.6779 16.2082 14.6721 16.2082 14.6663C16.2082 14.6605 16.2082 14.6547 16.2082 14.6488C16.2082 14.643 16.2082 14.6371 16.2082 14.6312C16.2082 14.6253 16.2082 14.6194 16.2082 14.6135C16.2082 14.6076 16.2082 14.6016 16.2082 14.5956C16.2082 14.5897 16.2082 14.5837 16.2082 14.5776C16.2082 14.5716 16.2082 14.5656 16.2082 14.5595C16.2082 14.5535 16.2082 14.5474 16.2082 14.5413C16.2082 14.5352 16.2082 14.5291 16.2082 14.5229C16.2082 14.5168 16.2082 14.5106 16.2082 14.5045C16.2082 14.4983 16.2082 14.4921 16.2082 14.4859C16.2082 14.4796 16.2082 14.4734 16.2082 14.4671C16.2082 14.4609 16.2082 14.4546 16.2082 14.4483C16.2082 14.442 16.2082 14.4357 16.2082 14.4293C16.2082 14.423 16.2082 14.4166 16.2082 14.4102C16.2082 14.4038 16.2082 14.3974 16.2082 14.391C16.2082 14.3846 16.2082 14.3782 16.2082 14.3717C16.2082 14.3652 16.2082 14.3587 16.2082 14.3522C16.2082 14.3457 16.2082 14.3392 16.2082 14.3327C16.2082 14.3261 16.2082 14.3196 16.2082 14.313C16.2082 14.3064 16.2082 14.2998 16.2082 14.2932C16.2082 14.2866 16.2082 14.2799 16.2082 14.2733C16.2082 14.2666 16.2082 14.2599 16.2082 14.2532C16.2082 14.2465 16.2082 14.2398 16.2082 14.2331C16.2082 14.2263 16.2082 14.2196 16.2082 14.2128C16.2082 14.206 16.2082 14.1992 16.2082 14.1924C16.2082 14.1856 16.2082 14.1788 16.2082 14.1719C16.2082 14.1651 16.2082 14.1582 16.2082 14.1513C16.2082 14.1444 16.2082 14.1375 16.2082 14.1306C16.2082 14.1237 16.2082 14.1167 16.2082 14.1098C16.2082 14.1028 16.2082 14.0958 16.2082 14.0888C16.2082 14.0818 16.2082 14.0748 16.2082 14.0677C16.2082 14.0607 16.2082 14.0536 16.2082 14.0466C16.2082 14.0395 16.2082 14.0324 16.2082 14.0253C16.2082 14.0181 16.2082 14.011 16.2082 14.0039C16.2082 13.9967 16.2082 13.9895 16.2082 13.9823C16.2082 13.9752 16.2082 13.968 16.2082 13.9607C16.2082 13.9535 16.2082 13.9463 16.2082 13.939C16.2082 13.9317 16.2082 13.9245 16.2082 13.9172C16.2082 13.9099 16.2082 13.9025 16.2082 13.8952C16.2082 13.8879 16.2082 13.8805 16.2082 13.8731C16.2082 13.8658 16.2082 13.8584 16.2082 13.851C16.2082 13.8436 16.2082 13.8362 16.2082 13.8287C16.2082 13.8213 16.2082 13.8138 16.2082 13.8063C16.2082 13.7989 16.2082 13.7914 16.2082 13.7838C16.2082 13.7763 16.2082 13.7688 16.2082 13.7613C16.2082 13.7537 16.2082 13.7461 16.2082 13.7386C16.2082 13.731 16.2082 13.7234 16.2082 13.7158C16.2082 13.7081 16.2082 13.7005 16.2082 13.6929C16.2082 13.6852 16.2082 13.6775 16.2082 13.6698C16.2082 13.6622 16.2082 13.6545 16.2082 13.6467C16.2082 13.639 16.2082 13.6313 16.2082 13.6235C16.2082 13.6158 16.2082 13.608 16.2082 13.6002C16.2082 13.5924 16.2082 13.5846 16.2082 13.5768C16.2082 13.569 16.2082 13.5611 16.2082 13.5533C16.2082 13.5454 16.2082 13.5375 16.2082 13.5296C16.2082 13.5217 16.2082 13.5138 16.2082 13.5059C16.2082 13.498 16.2082 13.4901 16.2082 13.4821C16.2082 13.4741 16.2082 13.4662 16.2082 13.4582C16.2082 13.4502 16.2082 13.4422 16.2082 13.4341C16.2082 13.4261 16.2082 13.4181 16.2082 13.41C16.2082 13.402 16.2082 13.3939 16.2082 13.3858C16.2082 13.3777 16.2082 13.3696 16.2082 13.3615C16.2082 13.3534 16.2082 13.3452 16.2082 13.3371C16.2082 13.3289 16.2082 13.3208 16.2082 13.3126C16.2082 13.3044 16.2082 13.2962 16.2082 13.288C16.2082 13.2798 16.2082 13.2715 16.2082 13.2633C16.2082 13.255 16.2082 13.2468 16.2082 13.2385C16.2082 13.2302 16.2082 13.2219 16.2082 13.2136C16.2082 13.2053 16.2082 13.1969 16.2082 13.1886C16.2082 13.1803 16.2082 13.1719 16.2082 13.1635C16.2082 13.1551 16.2082 13.1468 16.2082 13.1383C16.2082 13.1299 16.2082 13.1215 16.2082 13.1131C16.2082 13.1046 16.2082 13.0962 16.2082 13.0877C16.2082 13.0793 16.2082 13.0708 16.2082 13.0623C16.2082 13.0538 16.2082 13.0453 16.2082 13.0367C16.2082 13.0282 16.2082 13.0197 16.2082 13.0111C16.2082 13.0026 16.2082 12.994 16.2082 12.9854C16.2082 12.9768 16.2082 12.9682 16.2082 12.9596C16.2082 12.951 16.2082 12.9423 16.2082 12.9337C16.2082 12.925 16.2082 12.9164 16.2082 12.9077C16.2082 12.899 16.2082 12.8903 16.2082 12.8816C16.2082 12.8729 16.2082 12.8642 16.2082 12.8554C16.2082 12.8467 16.2082 12.838 16.2082 12.8292C16.2082 12.8204 16.2082 12.8116 16.2082 12.8029C16.2082 12.7941 16.2082 12.7852 16.2082 12.7764C16.2082 12.7676 16.2082 12.7588 16.2082 12.7499C16.2082 12.7411 16.2082 12.7322 16.2082 12.7233C16.2082 12.7144 16.2082 12.7055 16.2082 12.6966C16.2082 12.6877 16.2082 12.6788 16.2082 12.6699C16.2082 12.6609 16.2082 12.652 16.2082 12.643C16.2082 12.634 16.2082 12.6251 16.2082 12.6161C16.2082 12.6071 16.2082 12.5981 16.2082 12.5891C16.2082 12.58 16.2082 12.571 16.2082 12.562C16.2082 12.5529 16.2082 12.5438 16.2082 12.5348C16.2082 12.5257 16.2082 12.5166 16.2082 12.5075C16.2082 12.4984 16.2082 12.4893 16.2082 12.4802C16.2082 12.471 16.2082 12.4619 16.2082 12.4527C16.2082 12.4436 16.2082 12.4344 16.2082 12.4252C16.2082 12.416 16.2082 12.4068 16.2082 12.3976C16.2082 12.3884 16.2082 12.3792 16.2082 12.37C16.2082 12.3607 16.2082 12.3515 16.2082 12.3422C16.2082 12.333 16.2082 12.3237 16.2082 12.3144C16.2082 12.3051 16.2082 12.2958 16.2082 12.2865C16.2082 12.2772 16.2082 12.2679 16.2082 12.2585C16.2082 12.2492 16.2082 12.2398 16.2082 12.2305C16.2082 12.2211 16.2082 12.2117 16.2082 12.2023C16.2082 12.1929 16.2082 12.1835 16.2082 12.1741C16.2082 12.1647 16.2082 12.1553 16.2082 12.1458C16.2082 12.1364 16.2082 12.127 16.2082 12.1175C16.2082 12.108 16.2082 12.0985 16.2082 12.0891C16.2082 12.0796 16.2082 12.0701 16.2082 12.0605C16.2082 12.051 16.2082 12.0415 16.2082 12.032C16.2082 12.0224 16.2082 12.0129 16.2082 12.0033C16.2082 11.9938 16.2082 11.9842 16.2082 11.9746C16.2082 11.965 16.2082 11.9554 16.2082 11.9458C16.2082 11.9362 16.2082 11.9266 16.2082 11.9169C16.2082 11.9073 16.2082 11.8976 16.2082 11.888C16.2082 11.8783 16.2082 11.8687 16.2082 11.859C16.2082 11.8493 16.2082 11.8396 16.2082 11.8299C16.2082 11.8202 16.2082 11.8105 16.2082 11.8007C16.2082 11.791 16.2082 11.7813 16.2082 11.7715C16.2082 11.7618 16.2082 11.752 16.2082 11.7422C16.2082 11.7325 16.2082 11.7227 16.2082 11.7129C16.2082 11.7031 16.2082 11.6933 16.2082 11.6834C16.2082 11.6736 16.2082 11.6638 16.2082 11.654C16.2082 11.6441 16.2082 11.6343 16.2082 11.6244C16.2082 11.6145 16.2082 11.6047 16.2082 11.5948C16.2082 11.5849 16.2082 11.575 16.2082 11.5651C16.2082 11.5552 16.2082 11.5453 16.2082 11.5353C16.2082 11.5254 16.2082 11.5155 16.2082 11.5055C16.2082 11.4956 16.2082 11.4856 16.2082 11.4756C16.2082 11.4656 16.2082 11.4557 16.2082 11.4457C16.2082 11.4357 16.2082 11.4257 16.2082 11.4157C16.2082 11.4056 16.2082 11.3956 16.2082 11.3856C16.2082 11.3755 16.2082 11.3655 16.2082 11.3554C16.2082 11.3454 16.2082 11.3353 16.2082 11.3252C16.2082 11.3152 16.2082 11.3051 16.2082 11.295C16.2082 11.2849 16.2082 11.2748 16.2082 11.2647C16.2082 11.2545 16.2082 11.2444 16.2082 11.2343C16.2082 11.2241 16.2082 11.214 16.2082 11.2038C16.2082 11.1937 16.2082 11.1835 16.2082 11.1733C16.2082 11.1632 16.2082 11.153 16.2082 11.1428C16.2082 11.1326 16.2082 11.1224 16.2082 11.1122C16.2082 11.1019 16.2082 11.0917 16.2082 11.0815C16.2082 11.0712 16.2082 11.061 16.2082 11.0507C16.2082 11.0405 16.2082 11.0302 16.2082 11.0199C16.2082 11.0097 16.2082 10.9994 16.2082 10.9891C16.2082 10.9788 16.2082 10.9685 16.2082 10.9582C16.2082 10.9479 16.2082 10.9376 16.2082 10.9272C16.2082 10.9169 16.2082 10.9066 16.2082 10.8962C16.2082 10.8859 16.2082 10.8755 16.2082 10.8651C16.2082 10.8548 16.2082 10.8444 16.2082 10.834C16.2082 10.8236 16.2082 10.8132 16.2082 10.8028C16.2082 10.7924 16.2082 10.782 16.2082 10.7716C16.2082 10.7612 16.2082 10.7508 16.2082 10.7403C16.2082 10.7299 16.2082 10.7194 16.2082 10.709C16.2082 10.6985 16.2082 10.6881 16.2082 10.6776C16.2082 10.6671 16.2082 10.6566 16.2082 10.6461C16.2082 10.6357 16.2082 10.6252 16.2082 10.6147C16.2082 10.6041 16.2082 10.5936 16.2082 10.5831C16.2082 10.5726 16.2082 10.5621 16.2082 10.5515C16.2082 10.541 16.2082 10.5304 16.2082 10.5199C16.2082 10.5093 16.2082 10.4988 16.2082 10.4882C16.2082 10.4776 16.2082 10.467 16.2082 10.4564C16.2082 10.4459 16.2082 10.4353 16.2082 10.4247C16.2082 10.4141 16.2082 10.4034 16.2082 10.3928C16.2082 10.3822 16.2082 10.3716 16.2082 10.3609C16.2082 10.3503 16.2082 10.3397 16.2082 10.329C16.2082 10.3184 16.2082 10.3077 16.2082 10.297C16.2082 10.2864 16.2082 10.2757 16.2082 10.265C16.2082 10.2543 16.2082 10.2437 16.2082 10.233C16.2082 10.2223 16.2082 10.2116 16.2082 10.2009C16.2082 10.1901 16.2082 10.1794 16.2082 10.1687C16.2082 10.158 16.2082 10.1472 16.2082 10.1365C16.2082 10.1258 16.2082 10.115 16.2082 10.1043C16.2082 10.0935 16.2082 10.0827 16.2082 10.072C16.2082 10.0612 16.2082 10.0504 16.2082 10.0396C16.2082 10.0289 16.2082 10.0181 16.2082 10.0073C16.2082 9.99649 16.2082 9.98568 16.2082 9.97487C16.2082 9.96407 16.2082 9.95325 16.2082 9.94243C16.2082 9.9316 16.2082 9.92077 16.2082 9.90994C16.2082 9.8991 16.2082 9.88826 16.2082 9.87741C16.2082 9.86656 16.2082 9.8557 16.2082 9.84484C16.2082 9.83398 16.2082 9.82311 16.2082 9.81223C16.2082 9.80136 16.2082 9.79047 16.2082 9.77959C16.2082 9.7687 16.2082 9.7578 16.2082 9.7469C16.2082 9.736 16.2082 9.72509 16.2082 9.71418C16.2082 9.70327 16.2082 9.69235 16.2082 9.68142C16.2082 9.6705 16.2082 9.65957 16.2082 9.64863C16.2082 9.63769 16.2082 9.62675 16.2082 9.6158C16.2082 9.60485 16.2082 9.59389 16.2082 9.58293C16.2082 9.57197 16.2082 9.561 16.2082 9.55003C16.2082 9.53906 16.2082 9.52808 16.2082 9.5171C16.2082 9.50611 16.2082 9.49512 16.2082 9.48413C16.2082 9.47313 16.2082 9.46213 16.2082 9.45112C16.2082 9.44012 16.2082 9.42911 16.2082 9.41809C16.2082 9.40707 16.2082 9.39605 16.2082 9.38502C16.2082 9.37399 16.2082 9.36296 16.2082 9.35192C16.2082 9.34088 16.2082 9.32984 16.2082 9.31879C16.2082 9.30774 16.2082 9.29668 16.2082 9.28562C16.2082 9.27456 16.2082 9.2635 16.2082 9.25243C16.2082 9.24136 16.2082 9.23028 16.2082 9.21921C16.2082 9.20813 16.2082 9.19704 16.2082 9.18595C16.2082 9.17486 16.2082 9.16377 16.2082 9.15267C16.2082 9.14157 16.2082 9.13047 16.2082 9.11936C16.2082 9.10825 16.2082 9.09713 16.2082 9.08602C16.2082 9.0749 16.2082 9.06378 16.2082 9.05265C16.2082 9.04152 16.2082 9.03039 16.2082 9.01925C16.2082 9.00812 16.2082 8.99698 16.2082 8.98583C16.2082 8.97469 16.2082 8.96354 16.2082 8.95238C16.2082 8.94123 16.2082 8.93007 16.2082 8.91891C16.2082 8.90775 16.2082 8.89658 16.2082 8.88541C16.2082 8.87424 16.2082 8.86306 16.2082 8.85188C16.2082 8.84071 16.2082 8.82952 16.2082 8.81834C16.2082 8.80715 16.2082 8.79596 16.2082 8.78476C16.2082 8.77357 16.2082 8.76237 16.2082 8.75117C16.2082 8.73996 16.2082 8.72876 16.2082 8.71755C16.2082 8.70634 16.2082 8.69512 16.2082 8.68391C16.2082 8.67269 16.2082 8.66147 16.2082 8.65024C16.2082 8.63902 16.2082 8.62779 16.2082 8.61656C16.2082 8.60533 16.2082 8.59409 16.2082 8.58285C16.2082 8.57161 16.2082 8.56037 16.2082 8.54913C16.2082 8.53788 16.2082 8.52663 16.2082 8.51538C16.2082 8.50413 16.2082 8.49287 16.2082 8.48161C16.2082 8.47035 16.2082 8.45909 16.2082 8.44783C16.2082 8.43656 16.2082 8.42529 16.2082 8.41402C16.2082 8.40275 16.2082 8.39148 16.2082 8.3802C16.2082 8.36892 16.2082 8.35764 16.2082 8.34636C16.2082 8.33508 16.2082 8.32379 16.2082 8.3125C16.2082 8.30122 16.2082 8.28992 16.2082 8.27863C16.2082 8.26734 16.2082 8.25604 16.2082 8.24474C16.2082 8.23344 16.2082 8.22214 16.2082 8.21083C16.2082 8.19953 16.2082 8.18822 16.2082 8.17691C16.2082 8.1656 16.2082 8.15429 16.2082 8.14298C16.2082 8.13166 16.2082 8.12035 16.2082 8.10903C16.2082 8.09771 16.2082 8.08639 16.2082 8.07506C16.2082 8.06374 16.2082 8.05242 16.2082 8.04109C16.2082 8.02976 16.2082 8.01843 16.2082 8.0071C16.2082 7.99577 16.2082 7.98443 16.2082 7.9731C16.2082 7.96176 16.2082 7.95042 16.2082 7.93908C16.2082 7.92774 16.2082 7.9164 16.2082 7.90506C16.2082 7.89371 16.2082 7.88237 16.2082 7.87102C16.2082 7.85967 16.2082 7.84832 16.2082 7.83697C16.2082 7.82562 16.2082 7.81427 16.2082 7.80292C16.2082 7.79156 16.2082 7.78021 16.2082 7.76885C16.2082 7.75749 16.2082 7.74613 16.2082 7.73477C16.2082 7.72341 16.2082 7.71205 16.2082 7.70069C16.2082 7.68933 16.2082 7.67796 16.2082 7.6666C16.2082 7.65523 16.2082 7.64387 16.2082 7.6325C16.2082 7.62113 16.2082 7.60976 16.2082 7.59839C16.2082 7.58702 16.2082 7.57565 16.2082 7.56428C16.2082 7.55291 16.2082 7.54153 16.2082 7.53016C16.2082 7.51879 16.2082 7.50741 16.2082 7.49604C16.2082 7.48466 16.2082 7.47328 16.2082 7.46191C16.2082 7.45053 16.2082 7.43915 16.2082 7.42777C16.2082 7.41639 16.2082 7.40501 16.2082 7.39363C16.2082 7.38225 16.2082 7.37087 16.2082 7.35949C16.2082 7.34811 16.2082 7.33673 16.2082 7.32534C16.2082 7.31396 16.2082 7.30258 16.2082 7.29119C16.2082 7.27981 16.2082 7.26843 16.2082 7.25704C16.2082 7.24566 16.2082 7.23428 16.2082 7.22289C16.2082 7.21151 16.2082 7.20012 16.2082 7.18874C16.2082 7.17735 16.2082 7.16597 16.2082 7.15458C16.2082 7.1432 16.2082 7.13181 16.2082 7.12043C16.2082 7.10904 16.2082 7.09766 16.2082 7.08627C16.2082 7.07489 16.2082 7.0635 16.2082 7.05212C16.2082 7.04074 16.2082 7.02935 16.2082 7.01797C16.2082 7.00658 16.2082 6.9952 16.2082 6.98382C16.2082 6.97243 16.2082 6.96105 16.2082 6.94967C16.2082 6.93828 16.2082 6.9269 16.2082 6.91552C16.2082 6.90414 16.2082 6.89276 16.2082 6.88138C16.2082 6.87 16.2082 6.85861 16.2082 6.84724C16.2082 6.83586 16.2082 6.82448 16.2082 6.8131C16.2082 6.80172 16.2082 6.79034 16.2082 6.77897C16.2082 6.76759 16.2082 6.75622 16.2082 6.74484C16.2082 6.73347 16.2082 6.72209 16.2082 6.71072C16.2082 6.69935 16.2082 6.68798 16.2082 6.6766C16.2082 6.66523 16.2082 6.65386 16.2082 6.6425C16.2082 6.63113 16.2082 6.61976 16.2082 6.60839C16.2082 6.59703 16.2082 6.58566 16.2082 6.5743C16.2082 6.56294 16.2082 6.55157 16.2082 6.54021C16.2082 6.52885 16.2082 6.51749 16.2082 6.50613C16.2082 6.49478 16.2082 6.48342 16.2082 6.47206C16.2082 6.46071 16.2082 6.44936 16.2082 6.438C16.2082 6.42665 16.2082 6.4153 16.2082 6.40395C16.2082 6.3926 16.2082 6.38126 16.2082 6.36991C16.2082 6.35857 16.2082 6.34722 16.2082 6.33588C16.2082 6.32454 16.2082 6.3132 16.2082 6.30187C16.2082 6.29053 16.2082 6.27919 16.2082 6.26786C16.2082 6.25653 16.2082 6.24519 16.2082 6.23386C16.2082 6.22253 16.2082 6.21121 16.2082 6.19988C16.2082 6.18856 16.2082 6.17723 16.2082 6.16591C16.2082 6.15459 16.2082 6.14327 16.2082 6.13196C16.2082 6.12064 16.2082 6.10933 16.2082 6.09802C16.2082 6.08671 16.2082 6.0754 16.2082 6.06409C16.2082 6.05279 16.2082 6.04148 16.2082 6.03018C16.2082 6.01888 16.2082 6.00758 16.2082 5.99628C16.2082 5.98499 16.2082 5.9737 16.2082 5.96241C16.2082 5.95111 16.2082 5.93983 16.2082 5.92854C16.2082 5.91726 16.2082 5.90598 16.2082 5.8947C16.2082 5.88342 16.2082 5.87214 16.2082 5.86087C16.2082 5.84959 16.2082 5.83832 16.2082 5.82706C16.2082 5.81579 16.2082 5.80453 16.2082 5.79327C16.2082 5.782 16.2082 5.77075 16.2082 5.75949C16.2082 5.74824 16.2082 5.73699 16.2082 5.72574C16.2082 5.71449 16.2082 5.70325 16.2082 5.692C16.2082 5.68076 16.2082 5.66953 16.2082 5.65829C16.2082 5.64706 16.2082 5.63583 16.2082 5.6246C16.2082 5.61337 16.2082 5.60215 16.2082 5.59093C16.2082 5.57971 16.2082 5.56849 16.2082 5.55728C16.2082 5.54606 16.2082 5.53486 16.2082 5.52365C16.2082 5.51244 16.2082 5.50124 16.2082 5.49005C16.2082 5.47885 16.2082 5.46765 16.2082 5.45646C16.2082 5.44527 16.2082 5.43409 16.2082 5.42291C16.2082 5.41173 16.2082 5.40055 16.2082 5.38937C16.2082 5.3782 16.2082 5.36703 16.2082 5.35587C16.2082 5.3447 16.2082 5.33354 16.2082 5.32238C16.2082 5.31123 16.2082 5.30007 16.2082 5.28892C16.2082 5.27778 16.2082 5.26663 16.2082 5.25549C16.2082 5.24435 16.2082 5.23322 16.2082 5.22209C16.2082 5.21096 16.2082 5.19983 16.2082 5.18871C16.2082 5.17759 16.2082 5.16647 16.2082 5.15536C16.2082 5.14425 16.2082 5.13314 16.2082 5.12204C16.2082 5.11094 16.2082 5.09984 16.2082 5.08874C16.2082 5.07765 16.2082 5.06656 16.2082 5.05548C16.2082 5.0444 16.2082 5.03332 16.2082 5.02225C16.2082 5.01117 16.2082 5.0001 16.2082 4.98904C16.2082 4.97798 16.2082 4.96692 16.2082 4.95587C16.2082 4.94481 16.2082 4.93377 16.2082 4.92272C16.2082 4.91168 16.2082 4.90064 16.2082 4.88961C16.2082 4.87858 16.2082 4.86755 16.2082 4.85653C16.2082 4.84551 16.2082 4.83449 16.2082 4.82348C16.2082 4.81247 16.2082 4.80147 16.2082 4.79047C16.2082 4.77947 16.2082 4.76847 16.2082 4.75749C16.2082 4.7465 16.2082 4.73552 16.2082 4.72454C16.2082 4.71356 16.2082 4.70259 16.2082 4.69163C16.2082 4.68066 16.2082 4.6697 16.2082 4.65875C16.2082 4.64779 16.2082 4.63685 16.2082 4.6259C16.2082 4.61496 16.2082 4.60403 16.2082 4.5931C16.2082 4.58217 16.2082 4.57124 16.2082 4.56033C16.2082 4.54941 16.2082 4.5385 16.2082 4.52759C16.2082 4.51669 16.2082 4.50579 16.2082 4.49489C16.2082 4.484 16.2082 4.47312 16.2082 4.46224C16.2082 4.45135 16.2082 4.44048 16.2082 4.42961C16.2082 4.41875 16.2082 4.40789 16.2082 4.39703C16.2082 4.38618 16.2082 4.37533 16.2082 4.36449C16.2082 4.35365 16.2082 4.34281 16.2082 4.33198C16.2082 4.32116 16.2082 4.31034 16.2082 4.29952C16.2082 4.28871 16.2082 4.2779 16.2082 4.2671C16.2082 4.2563 16.2082 4.2455 16.2082 4.23472C16.2082 4.22393 16.2082 4.21315 16.2082 4.20238C16.2082 4.1916 16.2082 4.18084 16.2082 4.17008C16.2082 4.15932 16.2082 4.14857 16.2082 4.13782C16.2082 4.12708 16.2082 4.11634 16.2082 4.10561C16.2082 4.09488 16.2082 4.08415 16.2082 4.07344C16.2082 4.06272 16.2082 4.05201 16.2082 4.04131C16.2082 4.03061 16.2082 4.01992 16.2082 4.00923C16.2082 3.99855 16.2082 3.98787 16.2082 3.9772C16.2082 3.96653 16.2082 3.95586 16.2082 3.94521C16.2082 3.93455 16.2082 3.9239 16.2082 3.91326C16.2082 3.90262 16.2082 3.89199 16.2082 3.88136C16.2082 3.87074 16.2082 3.86012 16.2082 3.84951C16.2082 3.8389 16.2082 3.8283 16.2082 3.81771C16.2082 3.80711 16.2082 3.79653 16.2082 3.78595C16.2082 3.77537 16.2082 3.7648 16.2082 3.75424C16.2082 3.74368 16.2082 3.73313 16.2082 3.72258C16.2082 3.71204 16.2082 3.7015 16.2082 3.69097C16.2082 3.68044 16.2082 3.66992 16.2082 3.65941C16.2082 3.6489 16.2082 3.6384 16.2082 3.6279C16.2082 3.61741 16.2082 3.60692 16.2082 3.59644C16.2082 3.58597 16.2082 3.5755 16.2082 3.56504C16.2082 3.55457 16.2082 3.54412 16.2082 3.53368C16.2082 3.52324 16.2082 3.5128 16.2082 3.50237C16.2082 3.49195 16.2082 3.48153 16.2082 3.47112C16.2082 3.46071 16.2082 3.45031 16.2082 3.43992C16.2082 3.42953 16.2082 3.41915 16.2082 3.40878C16.2082 3.39841 16.2082 3.38804 16.2082 3.37769C16.2082 3.36733 16.2082 3.35699 16.2082 3.34665C16.2082 3.33632 16.2082 3.32599 16.2082 3.31567C16.2082 3.30535 16.2082 3.29504 16.2082 3.28474C16.2082 3.27445 16.2082 3.26416 16.2082 3.25388C16.2082 3.24359 16.2082 3.23332 16.2082 3.22306C16.2082 3.2128 16.2082 3.20255 16.2082 3.19231C16.2082 3.18206 16.2082 3.17183 16.2082 3.16161C16.2082 3.15138 16.2082 3.14117 16.2082 3.13097C16.2082 3.12076 16.2082 3.11057 16.2082 3.10038C16.2082 3.0902 16.2082 3.08002 16.2082 3.06986C16.2082 3.05969 16.2082 3.04954 16.2082 3.03939C16.2082 3.02925 16.2082 3.01912 16.2082 3.00899C16.2082 2.99887 16.2082 2.98875 16.2082 2.97865C16.2082 2.96854 16.2082 2.95845 16.2082 2.94836C16.2082 2.93828 16.2082 2.9282 16.2082 2.91814C16.2082 2.90808 16.2082 2.89802 16.2082 2.88798C16.2082 2.87794 16.2082 2.8679 16.2082 2.85788C16.2082 2.84786 16.2082 2.83785 16.2082 2.82785C16.2082 2.81785 16.2082 2.80786 16.2082 2.79788C16.2082 2.7879 16.2082 2.77793 16.2082 2.76797C16.2082 2.75801 16.2082 2.74806 16.2082 2.73812C16.2082 2.72819 16.2082 2.71826 16.2082 2.70834H15.2082C15.2082 2.71826 15.2082 2.72819 15.2082 2.73812C15.2082 2.74806 15.2082 2.75801 15.2082 2.76797C15.2082 2.77793 15.2082 2.7879 15.2082 2.79788C15.2082 2.80786 15.2082 2.81785 15.2082 2.82785C15.2082 2.83785 15.2082 2.84786 15.2082 2.85788C15.2082 2.8679 15.2082 2.87794 15.2082 2.88798C15.2082 2.89802 15.2082 2.90808 15.2082 2.91814C15.2082 2.9282 15.2082 2.93828 15.2082 2.94836C15.2082 2.95845 15.2082 2.96854 15.2082 2.97865C15.2082 2.98875 15.2082 2.99887 15.2082 3.00899C15.2082 3.01912 15.2082 3.02925 15.2082 3.03939C15.2082 3.04954 15.2082 3.05969 15.2082 3.06986C15.2082 3.08002 15.2082 3.0902 15.2082 3.10038C15.2082 3.11057 15.2082 3.12076 15.2082 3.13097C15.2082 3.14117 15.2082 3.15138 15.2082 3.16161C15.2082 3.17183 15.2082 3.18206 15.2082 3.19231C15.2082 3.20255 15.2082 3.2128 15.2082 3.22306C15.2082 3.23332 15.2082 3.24359 15.2082 3.25388C15.2082 3.26416 15.2082 3.27445 15.2082 3.28474C15.2082 3.29504 15.2082 3.30535 15.2082 3.31567C15.2082 3.32599 15.2082 3.33632 15.2082 3.34665C15.2082 3.35699 15.2082 3.36733 15.2082 3.37769C15.2082 3.38804 15.2082 3.39841 15.2082 3.40878C15.2082 3.41915 15.2082 3.42953 15.2082 3.43992C15.2082 3.45031 15.2082 3.46071 15.2082 3.47112C15.2082 3.48153 15.2082 3.49195 15.2082 3.50237C15.2082 3.5128 15.2082 3.52324 15.2082 3.53368C15.2082 3.54412 15.2082 3.55457 15.2082 3.56504C15.2082 3.5755 15.2082 3.58597 15.2082 3.59644C15.2082 3.60692 15.2082 3.61741 15.2082 3.6279C15.2082 3.6384 15.2082 3.6489 15.2082 3.65941C15.2082 3.66992 15.2082 3.68044 15.2082 3.69097C15.2082 3.7015 15.2082 3.71204 15.2082 3.72258C15.2082 3.73313 15.2082 3.74368 15.2082 3.75424C15.2082 3.7648 15.2082 3.77537 15.2082 3.78595C15.2082 3.79653 15.2082 3.80711 15.2082 3.81771C15.2082 3.8283 15.2082 3.8389 15.2082 3.84951C15.2082 3.86012 15.2082 3.87074 15.2082 3.88136C15.2082 3.89199 15.2082 3.90262 15.2082 3.91326C15.2082 3.9239 15.2082 3.93455 15.2082 3.94521C15.2082 3.95586 15.2082 3.96653 15.2082 3.9772C15.2082 3.98787 15.2082 3.99855 15.2082 4.00923C15.2082 4.01992 15.2082 4.03061 15.2082 4.04131C15.2082 4.05201 15.2082 4.06272 15.2082 4.07344C15.2082 4.08415 15.2082 4.09488 15.2082 4.10561C15.2082 4.11634 15.2082 4.12708 15.2082 4.13782C15.2082 4.14857 15.2082 4.15932 15.2082 4.17008C15.2082 4.18084 15.2082 4.1916 15.2082 4.20238C15.2082 4.21315 15.2082 4.22393 15.2082 4.23472C15.2082 4.2455 15.2082 4.2563 15.2082 4.2671C15.2082 4.2779 15.2082 4.28871 15.2082 4.29952C15.2082 4.31034 15.2082 4.32116 15.2082 4.33198C15.2082 4.34281 15.2082 4.35365 15.2082 4.36449C15.2082 4.37533 15.2082 4.38618 15.2082 4.39703C15.2082 4.40789 15.2082 4.41875 15.2082 4.42961C15.2082 4.44048 15.2082 4.45135 15.2082 4.46224C15.2082 4.47312 15.2082 4.484 15.2082 4.49489C15.2082 4.50579 15.2082 4.51669 15.2082 4.52759C15.2082 4.5385 15.2082 4.54941 15.2082 4.56033C15.2082 4.57124 15.2082 4.58217 15.2082 4.5931C15.2082 4.60403 15.2082 4.61496 15.2082 4.6259C15.2082 4.63685 15.2082 4.64779 15.2082 4.65875C15.2082 4.6697 15.2082 4.68066 15.2082 4.69163C15.2082 4.70259 15.2082 4.71356 15.2082 4.72454C15.2082 4.73552 15.2082 4.7465 15.2082 4.75749C15.2082 4.76847 15.2082 4.77947 15.2082 4.79047C15.2082 4.80147 15.2082 4.81247 15.2082 4.82348C15.2082 4.83449 15.2082 4.84551 15.2082 4.85653C15.2082 4.86755 15.2082 4.87858 15.2082 4.88961C15.2082 4.90064 15.2082 4.91168 15.2082 4.92272C15.2082 4.93377 15.2082 4.94481 15.2082 4.95587C15.2082 4.96692 15.2082 4.97798 15.2082 4.98904C15.2082 5.0001 15.2082 5.01117 15.2082 5.02225C15.2082 5.03332 15.2082 5.0444 15.2082 5.05548C15.2082 5.06656 15.2082 5.07765 15.2082 5.08874C15.2082 5.09984 15.2082 5.11094 15.2082 5.12204C15.2082 5.13314 15.2082 5.14425 15.2082 5.15536C15.2082 5.16647 15.2082 5.17759 15.2082 5.18871C15.2082 5.19983 15.2082 5.21096 15.2082 5.22209C15.2082 5.23322 15.2082 5.24435 15.2082 5.25549C15.2082 5.26663 15.2082 5.27778 15.2082 5.28892C15.2082 5.30007 15.2082 5.31123 15.2082 5.32238C15.2082 5.33354 15.2082 5.3447 15.2082 5.35587C15.2082 5.36703 15.2082 5.3782 15.2082 5.38937C15.2082 5.40055 15.2082 5.41173 15.2082 5.42291C15.2082 5.43409 15.2082 5.44527 15.2082 5.45646C15.2082 5.46765 15.2082 5.47885 15.2082 5.49005C15.2082 5.50124 15.2082 5.51244 15.2082 5.52365C15.2082 5.53486 15.2082 5.54606 15.2082 5.55728C15.2082 5.56849 15.2082 5.57971 15.2082 5.59093C15.2082 5.60215 15.2082 5.61337 15.2082 5.6246C15.2082 5.63583 15.2082 5.64706 15.2082 5.65829C15.2082 5.66953 15.2082 5.68076 15.2082 5.692C15.2082 5.70325 15.2082 5.71449 15.2082 5.72574C15.2082 5.73699 15.2082 5.74824 15.2082 5.75949C15.2082 5.77075 15.2082 5.782 15.2082 5.79327C15.2082 5.80453 15.2082 5.81579 15.2082 5.82706C15.2082 5.83832 15.2082 5.84959 15.2082 5.86087C15.2082 5.87214 15.2082 5.88342 15.2082 5.8947C15.2082 5.90598 15.2082 5.91726 15.2082 5.92854C15.2082 5.93983 15.2082 5.95111 15.2082 5.96241C15.2082 5.9737 15.2082 5.98499 15.2082 5.99628C15.2082 6.00758 15.2082 6.01888 15.2082 6.03018C15.2082 6.04148 15.2082 6.05279 15.2082 6.06409C15.2082 6.0754 15.2082 6.08671 15.2082 6.09802C15.2082 6.10933 15.2082 6.12064 15.2082 6.13196C15.2082 6.14327 15.2082 6.15459 15.2082 6.16591C15.2082 6.17723 15.2082 6.18856 15.2082 6.19988C15.2082 6.21121 15.2082 6.22253 15.2082 6.23386C15.2082 6.24519 15.2082 6.25653 15.2082 6.26786C15.2082 6.27919 15.2082 6.29053 15.2082 6.30187C15.2082 6.3132 15.2082 6.32454 15.2082 6.33588C15.2082 6.34722 15.2082 6.35857 15.2082 6.36991C15.2082 6.38126 15.2082 6.3926 15.2082 6.40395C15.2082 6.4153 15.2082 6.42665 15.2082 6.438C15.2082 6.44936 15.2082 6.46071 15.2082 6.47206C15.2082 6.48342 15.2082 6.49478 15.2082 6.50613C15.2082 6.51749 15.2082 6.52885 15.2082 6.54021C15.2082 6.55157 15.2082 6.56294 15.2082 6.5743C15.2082 6.58566 15.2082 6.59703 15.2082 6.60839C15.2082 6.61976 15.2082 6.63113 15.2082 6.6425C15.2082 6.65386 15.2082 6.66523 15.2082 6.6766C15.2082 6.68798 15.2082 6.69935 15.2082 6.71072C15.2082 6.72209 15.2082 6.73347 15.2082 6.74484C15.2082 6.75622 15.2082 6.76759 15.2082 6.77897C15.2082 6.79034 15.2082 6.80172 15.2082 6.8131C15.2082 6.82448 15.2082 6.83586 15.2082 6.84724C15.2082 6.85861 15.2082 6.87 15.2082 6.88138C15.2082 6.89276 15.2082 6.90414 15.2082 6.91552C15.2082 6.9269 15.2082 6.93828 15.2082 6.94967C15.2082 6.96105 15.2082 6.97243 15.2082 6.98382C15.2082 6.9952 15.2082 7.00658 15.2082 7.01797C15.2082 7.02935 15.2082 7.04074 15.2082 7.05212C15.2082 7.0635 15.2082 7.07489 15.2082 7.08627C15.2082 7.09766 15.2082 7.10904 15.2082 7.12043C15.2082 7.13181 15.2082 7.1432 15.2082 7.15458C15.2082 7.16597 15.2082 7.17735 15.2082 7.18874C15.2082 7.20012 15.2082 7.21151 15.2082 7.22289C15.2082 7.23428 15.2082 7.24566 15.2082 7.25704C15.2082 7.26843 15.2082 7.27981 15.2082 7.29119C15.2082 7.30258 15.2082 7.31396 15.2082 7.32534C15.2082 7.33673 15.2082 7.34811 15.2082 7.35949C15.2082 7.37087 15.2082 7.38225 15.2082 7.39363C15.2082 7.40501 15.2082 7.41639 15.2082 7.42777C15.2082 7.43915 15.2082 7.45053 15.2082 7.46191C15.2082 7.47328 15.2082 7.48466 15.2082 7.49604C15.2082 7.50741 15.2082 7.51879 15.2082 7.53016C15.2082 7.54153 15.2082 7.55291 15.2082 7.56428C15.2082 7.57565 15.2082 7.58702 15.2082 7.59839C15.2082 7.60976 15.2082 7.62113 15.2082 7.6325C15.2082 7.64387 15.2082 7.65523 15.2082 7.6666C15.2082 7.67796 15.2082 7.68933 15.2082 7.70069C15.2082 7.71205 15.2082 7.72341 15.2082 7.73477C15.2082 7.74613 15.2082 7.75749 15.2082 7.76885C15.2082 7.78021 15.2082 7.79156 15.2082 7.80292C15.2082 7.81427 15.2082 7.82562 15.2082 7.83697C15.2082 7.84832 15.2082 7.85967 15.2082 7.87102C15.2082 7.88237 15.2082 7.89371 15.2082 7.90506C15.2082 7.9164 15.2082 7.92774 15.2082 7.93908C15.2082 7.95042 15.2082 7.96176 15.2082 7.9731C15.2082 7.98443 15.2082 7.99577 15.2082 8.0071C15.2082 8.01843 15.2082 8.02976 15.2082 8.04109C15.2082 8.05242 15.2082 8.06374 15.2082 8.07506C15.2082 8.08639 15.2082 8.09771 15.2082 8.10903C15.2082 8.12035 15.2082 8.13166 15.2082 8.14298C15.2082 8.15429 15.2082 8.1656 15.2082 8.17691C15.2082 8.18822 15.2082 8.19953 15.2082 8.21083C15.2082 8.22214 15.2082 8.23344 15.2082 8.24474C15.2082 8.25604 15.2082 8.26734 15.2082 8.27863C15.2082 8.28992 15.2082 8.30122 15.2082 8.3125C15.2082 8.32379 15.2082 8.33508 15.2082 8.34636C15.2082 8.35764 15.2082 8.36892 15.2082 8.3802C15.2082 8.39148 15.2082 8.40275 15.2082 8.41402C15.2082 8.42529 15.2082 8.43656 15.2082 8.44783C15.2082 8.45909 15.2082 8.47035 15.2082 8.48161C15.2082 8.49287 15.2082 8.50413 15.2082 8.51538C15.2082 8.52663 15.2082 8.53788 15.2082 8.54913C15.2082 8.56037 15.2082 8.57161 15.2082 8.58285C15.2082 8.59409 15.2082 8.60533 15.2082 8.61656C15.2082 8.62779 15.2082 8.63902 15.2082 8.65024C15.2082 8.66147 15.2082 8.67269 15.2082 8.68391C15.2082 8.69512 15.2082 8.70634 15.2082 8.71755C15.2082 8.72876 15.2082 8.73996 15.2082 8.75117C15.2082 8.76237 15.2082 8.77357 15.2082 8.78476C15.2082 8.79596 15.2082 8.80715 15.2082 8.81834C15.2082 8.82952 15.2082 8.84071 15.2082 8.85188C15.2082 8.86306 15.2082 8.87424 15.2082 8.88541C15.2082 8.89658 15.2082 8.90775 15.2082 8.91891C15.2082 8.93007 15.2082 8.94123 15.2082 8.95238C15.2082 8.96354 15.2082 8.97469 15.2082 8.98583C15.2082 8.99698 15.2082 9.00812 15.2082 9.01925C15.2082 9.03039 15.2082 9.04152 15.2082 9.05265C15.2082 9.06378 15.2082 9.0749 15.2082 9.08602C15.2082 9.09713 15.2082 9.10825 15.2082 9.11936C15.2082 9.13047 15.2082 9.14157 15.2082 9.15267C15.2082 9.16377 15.2082 9.17486 15.2082 9.18595C15.2082 9.19704 15.2082 9.20813 15.2082 9.21921C15.2082 9.23028 15.2082 9.24136 15.2082 9.25243C15.2082 9.2635 15.2082 9.27456 15.2082 9.28562C15.2082 9.29668 15.2082 9.30774 15.2082 9.31879C15.2082 9.32984 15.2082 9.34088 15.2082 9.35192C15.2082 9.36296 15.2082 9.37399 15.2082 9.38502C15.2082 9.39605 15.2082 9.40707 15.2082 9.41809C15.2082 9.42911 15.2082 9.44012 15.2082 9.45112C15.2082 9.46213 15.2082 9.47313 15.2082 9.48413C15.2082 9.49512 15.2082 9.50611 15.2082 9.5171C15.2082 9.52808 15.2082 9.53906 15.2082 9.55003C15.2082 9.561 15.2082 9.57197 15.2082 9.58293C15.2082 9.59389 15.2082 9.60485 15.2082 9.6158C15.2082 9.62675 15.2082 9.63769 15.2082 9.64863C15.2082 9.65957 15.2082 9.6705 15.2082 9.68142C15.2082 9.69235 15.2082 9.70327 15.2082 9.71418C15.2082 9.72509 15.2082 9.736 15.2082 9.7469C15.2082 9.7578 15.2082 9.7687 15.2082 9.77959C15.2082 9.79047 15.2082 9.80136 15.2082 9.81223C15.2082 9.82311 15.2082 9.83398 15.2082 9.84484C15.2082 9.8557 15.2082 9.86656 15.2082 9.87741C15.2082 9.88826 15.2082 9.8991 15.2082 9.90994C15.2082 9.92077 15.2082 9.9316 15.2082 9.94243C15.2082 9.95325 15.2082 9.96407 15.2082 9.97487C15.2082 9.98568 15.2082 9.99649 15.2082 10.0073C15.2082 10.0181 15.2082 10.0289 15.2082 10.0396C15.2082 10.0504 15.2082 10.0612 15.2082 10.072C15.2082 10.0827 15.2082 10.0935 15.2082 10.1043C15.2082 10.115 15.2082 10.1258 15.2082 10.1365C15.2082 10.1472 15.2082 10.158 15.2082 10.1687C15.2082 10.1794 15.2082 10.1901 15.2082 10.2009C15.2082 10.2116 15.2082 10.2223 15.2082 10.233C15.2082 10.2437 15.2082 10.2543 15.2082 10.265C15.2082 10.2757 15.2082 10.2864 15.2082 10.297C15.2082 10.3077 15.2082 10.3184 15.2082 10.329C15.2082 10.3397 15.2082 10.3503 15.2082 10.3609C15.2082 10.3716 15.2082 10.3822 15.2082 10.3928C15.2082 10.4034 15.2082 10.4141 15.2082 10.4247C15.2082 10.4353 15.2082 10.4459 15.2082 10.4564C15.2082 10.467 15.2082 10.4776 15.2082 10.4882C15.2082 10.4988 15.2082 10.5093 15.2082 10.5199C15.2082 10.5304 15.2082 10.541 15.2082 10.5515C15.2082 10.5621 15.2082 10.5726 15.2082 10.5831C15.2082 10.5936 15.2082 10.6041 15.2082 10.6147C15.2082 10.6252 15.2082 10.6357 15.2082 10.6461C15.2082 10.6566 15.2082 10.6671 15.2082 10.6776C15.2082 10.6881 15.2082 10.6985 15.2082 10.709C15.2082 10.7194 15.2082 10.7299 15.2082 10.7403C15.2082 10.7508 15.2082 10.7612 15.2082 10.7716C15.2082 10.782 15.2082 10.7924 15.2082 10.8028C15.2082 10.8132 15.2082 10.8236 15.2082 10.834C15.2082 10.8444 15.2082 10.8548 15.2082 10.8651C15.2082 10.8755 15.2082 10.8859 15.2082 10.8962C15.2082 10.9066 15.2082 10.9169 15.2082 10.9272C15.2082 10.9376 15.2082 10.9479 15.2082 10.9582C15.2082 10.9685 15.2082 10.9788 15.2082 10.9891C15.2082 10.9994 15.2082 11.0097 15.2082 11.0199C15.2082 11.0302 15.2082 11.0405 15.2082 11.0507C15.2082 11.061 15.2082 11.0712 15.2082 11.0815C15.2082 11.0917 15.2082 11.1019 15.2082 11.1122C15.2082 11.1224 15.2082 11.1326 15.2082 11.1428C15.2082 11.153 15.2082 11.1632 15.2082 11.1733C15.2082 11.1835 15.2082 11.1937 15.2082 11.2038C15.2082 11.214 15.2082 11.2241 15.2082 11.2343C15.2082 11.2444 15.2082 11.2545 15.2082 11.2647C15.2082 11.2748 15.2082 11.2849 15.2082 11.295C15.2082 11.3051 15.2082 11.3152 15.2082 11.3252C15.2082 11.3353 15.2082 11.3454 15.2082 11.3554C15.2082 11.3655 15.2082 11.3755 15.2082 11.3856C15.2082 11.3956 15.2082 11.4056 15.2082 11.4157C15.2082 11.4257 15.2082 11.4357 15.2082 11.4457C15.2082 11.4557 15.2082 11.4656 15.2082 11.4756C15.2082 11.4856 15.2082 11.4956 15.2082 11.5055C15.2082 11.5155 15.2082 11.5254 15.2082 11.5353C15.2082 11.5453 15.2082 11.5552 15.2082 11.5651C15.2082 11.575 15.2082 11.5849 15.2082 11.5948C15.2082 11.6047 15.2082 11.6145 15.2082 11.6244C15.2082 11.6343 15.2082 11.6441 15.2082 11.654C15.2082 11.6638 15.2082 11.6736 15.2082 11.6834C15.2082 11.6933 15.2082 11.7031 15.2082 11.7129C15.2082 11.7227 15.2082 11.7325 15.2082 11.7422C15.2082 11.752 15.2082 11.7618 15.2082 11.7715C15.2082 11.7813 15.2082 11.791 15.2082 11.8007C15.2082 11.8105 15.2082 11.8202 15.2082 11.8299C15.2082 11.8396 15.2082 11.8493 15.2082 11.859C15.2082 11.8687 15.2082 11.8783 15.2082 11.888C15.2082 11.8976 15.2082 11.9073 15.2082 11.9169C15.2082 11.9266 15.2082 11.9362 15.2082 11.9458C15.2082 11.9554 15.2082 11.965 15.2082 11.9746C15.2082 11.9842 15.2082 11.9938 15.2082 12.0033C15.2082 12.0129 15.2082 12.0224 15.2082 12.032C15.2082 12.0415 15.2082 12.051 15.2082 12.0605C15.2082 12.0701 15.2082 12.0796 15.2082 12.0891C15.2082 12.0985 15.2082 12.108 15.2082 12.1175C15.2082 12.127 15.2082 12.1364 15.2082 12.1458C15.2082 12.1553 15.2082 12.1647 15.2082 12.1741C15.2082 12.1835 15.2082 12.1929 15.2082 12.2023C15.2082 12.2117 15.2082 12.2211 15.2082 12.2305C15.2082 12.2398 15.2082 12.2492 15.2082 12.2585C15.2082 12.2679 15.2082 12.2772 15.2082 12.2865C15.2082 12.2958 15.2082 12.3051 15.2082 12.3144C15.2082 12.3237 15.2082 12.333 15.2082 12.3422C15.2082 12.3515 15.2082 12.3607 15.2082 12.37C15.2082 12.3792 15.2082 12.3884 15.2082 12.3976C15.2082 12.4068 15.2082 12.416 15.2082 12.4252C15.2082 12.4344 15.2082 12.4436 15.2082 12.4527C15.2082 12.4619 15.2082 12.471 15.2082 12.4802C15.2082 12.4893 15.2082 12.4984 15.2082 12.5075C15.2082 12.5166 15.2082 12.5257 15.2082 12.5348C15.2082 12.5438 15.2082 12.5529 15.2082 12.562C15.2082 12.571 15.2082 12.58 15.2082 12.5891C15.2082 12.5981 15.2082 12.6071 15.2082 12.6161C15.2082 12.6251 15.2082 12.634 15.2082 12.643C15.2082 12.652 15.2082 12.6609 15.2082 12.6699C15.2082 12.6788 15.2082 12.6877 15.2082 12.6966C15.2082 12.7055 15.2082 12.7144 15.2082 12.7233C15.2082 12.7322 15.2082 12.7411 15.2082 12.7499C15.2082 12.7588 15.2082 12.7676 15.2082 12.7764C15.2082 12.7852 15.2082 12.7941 15.2082 12.8029C15.2082 12.8116 15.2082 12.8204 15.2082 12.8292C15.2082 12.838 15.2082 12.8467 15.2082 12.8554C15.2082 12.8642 15.2082 12.8729 15.2082 12.8816C15.2082 12.8903 15.2082 12.899 15.2082 12.9077C15.2082 12.9164 15.2082 12.925 15.2082 12.9337C15.2082 12.9423 15.2082 12.951 15.2082 12.9596C15.2082 12.9682 15.2082 12.9768 15.2082 12.9854C15.2082 12.994 15.2082 13.0026 15.2082 13.0111C15.2082 13.0197 15.2082 13.0282 15.2082 13.0367C15.2082 13.0453 15.2082 13.0538 15.2082 13.0623C15.2082 13.0708 15.2082 13.0793 15.2082 13.0877C15.2082 13.0962 15.2082 13.1046 15.2082 13.1131C15.2082 13.1215 15.2082 13.1299 15.2082 13.1383C15.2082 13.1468 15.2082 13.1551 15.2082 13.1635C15.2082 13.1719 15.2082 13.1803 15.2082 13.1886C15.2082 13.1969 15.2082 13.2053 15.2082 13.2136C15.2082 13.2219 15.2082 13.2302 15.2082 13.2385C15.2082 13.2468 15.2082 13.255 15.2082 13.2633C15.2082 13.2715 15.2082 13.2798 15.2082 13.288C15.2082 13.2962 15.2082 13.3044 15.2082 13.3126C15.2082 13.3208 15.2082 13.3289 15.2082 13.3371C15.2082 13.3452 15.2082 13.3534 15.2082 13.3615C15.2082 13.3696 15.2082 13.3777 15.2082 13.3858C15.2082 13.3939 15.2082 13.402 15.2082 13.41C15.2082 13.4181 15.2082 13.4261 15.2082 13.4341C15.2082 13.4422 15.2082 13.4502 15.2082 13.4582C15.2082 13.4662 15.2082 13.4741 15.2082 13.4821C15.2082 13.4901 15.2082 13.498 15.2082 13.5059C15.2082 13.5138 15.2082 13.5217 15.2082 13.5296C15.2082 13.5375 15.2082 13.5454 15.2082 13.5533C15.2082 13.5611 15.2082 13.569 15.2082 13.5768C15.2082 13.5846 15.2082 13.5924 15.2082 13.6002C15.2082 13.608 15.2082 13.6158 15.2082 13.6235C15.2082 13.6313 15.2082 13.639 15.2082 13.6467C15.2082 13.6545 15.2082 13.6622 15.2082 13.6698C15.2082 13.6775 15.2082 13.6852 15.2082 13.6929C15.2082 13.7005 15.2082 13.7081 15.2082 13.7158C15.2082 13.7234 15.2082 13.731 15.2082 13.7386C15.2082 13.7461 15.2082 13.7537 15.2082 13.7613C15.2082 13.7688 15.2082 13.7763 15.2082 13.7838C15.2082 13.7914 15.2082 13.7989 15.2082 13.8063C15.2082 13.8138 15.2082 13.8213 15.2082 13.8287C15.2082 13.8362 15.2082 13.8436 15.2082 13.851C15.2082 13.8584 15.2082 13.8658 15.2082 13.8731C15.2082 13.8805 15.2082 13.8879 15.2082 13.8952C15.2082 13.9025 15.2082 13.9099 15.2082 13.9172C15.2082 13.9245 15.2082 13.9317 15.2082 13.939C15.2082 13.9463 15.2082 13.9535 15.2082 13.9607C15.2082 13.968 15.2082 13.9752 15.2082 13.9823C15.2082 13.9895 15.2082 13.9967 15.2082 14.0039C15.2082 14.011 15.2082 14.0181 15.2082 14.0253C15.2082 14.0324 15.2082 14.0395 15.2082 14.0466C15.2082 14.0536 15.2082 14.0607 15.2082 14.0677C15.2082 14.0748 15.2082 14.0818 15.2082 14.0888C15.2082 14.0958 15.2082 14.1028 15.2082 14.1098C15.2082 14.1167 15.2082 14.1237 15.2082 14.1306C15.2082 14.1375 15.2082 14.1444 15.2082 14.1513C15.2082 14.1582 15.2082 14.1651 15.2082 14.1719C15.2082 14.1788 15.2082 14.1856 15.2082 14.1924C15.2082 14.1992 15.2082 14.206 15.2082 14.2128C15.2082 14.2196 15.2082 14.2263 15.2082 14.2331C15.2082 14.2398 15.2082 14.2465 15.2082 14.2532C15.2082 14.2599 15.2082 14.2666 15.2082 14.2733C15.2082 14.2799 15.2082 14.2866 15.2082 14.2932C15.2082 14.2998 15.2082 14.3064 15.2082 14.313C15.2082 14.3196 15.2082 14.3261 15.2082 14.3327C15.2082 14.3392 15.2082 14.3457 15.2082 14.3522C15.2082 14.3587 15.2082 14.3652 15.2082 14.3717C15.2082 14.3782 15.2082 14.3846 15.2082 14.391C15.2082 14.3974 15.2082 14.4038 15.2082 14.4102C15.2082 14.4166 15.2082 14.423 15.2082 14.4293C15.2082 14.4357 15.2082 14.442 15.2082 14.4483C15.2082 14.4546 15.2082 14.4609 15.2082 14.4671C15.2082 14.4734 15.2082 14.4796 15.2082 14.4859C15.2082 14.4921 15.2082 14.4983 15.2082 14.5045C15.2082 14.5106 15.2082 14.5168 15.2082 14.5229C15.2082 14.5291 15.2082 14.5352 15.2082 14.5413C15.2082 14.5474 15.2082 14.5535 15.2082 14.5595C15.2082 14.5656 15.2082 14.5716 15.2082 14.5776C15.2082 14.5837 15.2082 14.5897 15.2082 14.5956C15.2082 14.6016 15.2082 14.6076 15.2082 14.6135C15.2082 14.6194 15.2082 14.6253 15.2082 14.6312C15.2082 14.6371 15.2082 14.643 15.2082 14.6488C15.2082 14.6547 15.2082 14.6605 15.2082 14.6663C15.2082 14.6721 15.2082 14.6779 15.2082 14.6837C15.2082 14.6894 15.2082 14.6952 15.2082 14.7009C15.2082 14.7066 15.2082 14.7123 15.2082 14.718C15.2082 14.7237 15.2082 14.7293 15.2082 14.735C15.2082 14.7406 15.2082 14.7462 15.2082 14.7518C15.2082 14.7574 15.2082 14.763 15.2082 14.7685C15.2082 14.7741 15.2082 14.7796 15.2082 14.7851C15.2082 14.7906 15.2082 14.7961 15.2082 14.8016C15.2082 14.807 15.2082 14.8125 15.2082 14.8179C15.2082 14.8233 15.2082 14.8287 15.2082 14.8341C15.2082 14.8394 15.2082 14.8448 15.2082 14.8501C15.2082 14.8555 15.2082 14.8608 15.2082 14.8661C15.2082 14.8713 15.2082 14.8766 15.2082 14.8818C15.2082 14.8871 15.2082 14.8923 15.2082 14.8975C15.2082 14.9027 15.2082 14.9079 15.2082 14.913C15.2082 14.9182 15.2082 14.9233 15.2082 14.9284C15.2082 14.9335 15.2082 14.9386 15.2082 14.9437C15.2082 14.9488 15.2082 14.9538 15.2082 14.9588C15.2082 14.9638 15.2082 14.9688 15.2082 14.9738C15.2082 14.9788 15.2082 14.9837 15.2082 14.9887C15.2082 14.9936 15.2082 14.9985 15.2082 15.0034C15.2082 15.0082 15.2082 15.0131 15.2082 15.0179C15.2082 15.0228 15.2082 15.0276 15.2082 15.0324C15.2082 15.0372 15.2082 15.0419 15.2082 15.0467C15.2082 15.0514 15.2082 15.0562 15.2082 15.0608C15.2082 15.0655 15.2082 15.0702 15.2082 15.0749C15.2082 15.0795 15.2082 15.0842 15.2082 15.0888C15.2082 15.0934 15.2082 15.0979 15.2082 15.1025C15.2082 15.1071 15.2082 15.1116 15.2082 15.1161C15.2082 15.1206 15.2082 15.1251 15.2082 15.1296C15.2082 15.134 15.2082 15.1385 15.2082 15.1429C15.2082 15.1473 15.2082 15.1517 15.2082 15.1561C15.2082 15.1604 15.2082 15.1648 15.2082 15.1691C15.2082 15.1734 15.2082 15.1777 15.2082 15.182C15.2082 15.1863 15.2082 15.1905 15.2082 15.1948C15.2082 15.199 15.2082 15.2032 15.2082 15.2074C15.2082 15.2116 15.2082 15.2157 15.2082 15.2198C15.2082 15.224 15.2082 15.2281 15.2082 15.2322C15.2082 15.2362 15.2082 15.2403 15.2082 15.2443C15.2082 15.2484 15.2082 15.2524 15.2082 15.2564C15.2082 15.2603 15.2082 15.2643 15.2082 15.2682C15.2082 15.2722 15.2082 15.2761 15.2082 15.28C15.2082 15.2839 15.2082 15.2877 15.2082 15.2916C15.2082 15.2954 15.2082 15.2992 15.2082 15.303C15.2082 15.3068 15.2082 15.3106 15.2082 15.3143C15.2082 15.318 15.2082 15.3218 15.2082 15.3254C15.2082 15.3291 15.2082 15.3328 15.2082 15.3364C15.2082 15.3401 15.2082 15.3437 15.2082 15.3473C15.2082 15.3509 15.2082 15.3544 15.2082 15.358C15.2082 15.3615 15.2082 15.365 15.2082 15.3685C15.2082 15.372 15.2082 15.3755 15.2082 15.3789C15.2082 15.3824 15.2082 15.3858 15.2082 15.3892C15.2082 15.3926 15.2082 15.3959 15.2082 15.3993C15.2082 15.4026 15.2082 15.4059 15.2082 15.4092C15.2082 15.4125 15.2082 15.4157 15.2082 15.419C15.2082 15.4222 15.2082 15.4254 15.2082 15.4286C15.2082 15.4318 15.2082 15.435 15.2082 15.4381C15.2082 15.4412 15.2082 15.4443 15.2082 15.4474C15.2082 15.4505 15.2082 15.4535 15.2082 15.4566C15.2082 15.4596 15.2082 15.4626 15.2082 15.4656C15.2082 15.4686 15.2082 15.4715 15.2082 15.4744C15.2082 15.4774 15.2082 15.4803 15.2082 15.4831C15.2082 15.486 15.2082 15.4889 15.2082 15.4917C15.2082 15.4945 15.2082 15.4973 15.2082 15.5001C15.2082 15.5028 15.2082 15.5056 15.2082 15.5083C15.2082 15.511 15.2082 15.5137 15.2082 15.5164C15.2082 15.519 15.2082 15.5217 15.2082 15.5243C15.2082 15.5269 15.2082 15.5295 15.2082 15.532C15.2082 15.5346 15.2082 15.5371 15.2082 15.5396C15.2082 15.5421 15.2082 15.5446 15.2082 15.5471C15.2082 15.5495 15.2082 15.5519 15.2082 15.5543C15.2082 15.5567 15.2082 15.5591 15.2082 15.5615C15.2082 15.5638 15.2082 15.5661 15.2082 15.5684C15.2082 15.5707 15.2082 15.573 15.2082 15.5752C15.2082 15.5774 15.2082 15.5796 15.2082 15.5818C15.2082 15.584 15.2082 15.5862 15.2082 15.5883C15.2082 15.5904 15.2082 15.5925 15.2082 15.5946C15.2082 15.5966 15.2082 15.5987 15.2082 15.6007C15.2082 15.6027 15.2082 15.6047 15.2082 15.6067C15.2082 15.6086 15.2082 15.6106 15.2082 15.6125C15.2082 15.6144 15.2082 15.6163 15.2082 15.6181C15.2082 15.62 15.2082 15.6218 15.2082 15.6236C15.2082 15.6254 15.2082 15.6272 15.2082 15.6289C15.2082 15.6306 15.2082 15.6324 15.2082 15.634C15.2082 15.6357 15.2082 15.6374 15.2082 15.639C15.2082 15.6406 15.2082 15.6423 15.2082 15.6438C15.2082 15.6454 15.2082 15.6469 15.2082 15.6485C15.2082 15.65 15.2082 15.6515 15.2082 15.6529C15.2082 15.6544 15.2082 15.6558 15.2082 15.6572C15.2082 15.6586 15.2082 15.66 15.2082 15.6614C15.2082 15.6627 15.2082 15.664 15.2082 15.6653C15.2082 15.6666 15.2082 15.6679 15.2082 15.6691C15.2082 15.6703 15.2082 15.6715 15.2082 15.6727C15.2082 15.6739 15.2082 15.675 15.2082 15.6762C15.2082 15.6773 15.2082 15.6784 15.2082 15.6794C15.2082 15.6805 15.2082 15.6815 15.2082 15.6825C15.2082 15.6835 15.2082 15.6845 15.2082 15.6855C15.2082 15.6864 15.2082 15.6873 15.2082 15.6882C15.2082 15.6891 15.2082 15.69 15.2082 15.6908C15.2082 15.6916 15.2082 15.6924 15.2082 15.6932C15.2082 15.694 15.2082 15.6947 15.2082 15.6954C15.2082 15.6961 15.2082 15.6968 15.2082 15.6975C15.2082 15.6981 15.2082 15.6988 15.2082 15.6994C15.2082 15.7 15.2082 15.7005 15.2082 15.7011C15.2082 15.7016 15.2082 15.7021 15.2082 15.7026C15.2082 15.7031 15.2082 15.7035 15.2082 15.7039C15.2082 15.7043 15.2082 15.7047 15.2082 15.7051C15.2082 15.7055 15.2082 15.7058 15.2082 15.7061C15.2082 15.7064 15.2082 15.7067 15.2082 15.7069C15.2082 15.7071 15.2082 15.7074 15.2082 15.7075C15.2082 15.7077 15.2082 15.7079 15.2082 15.708C15.2082 15.7081 15.2082 15.7082 15.2082 15.7083C15.2082 15.7083 15.2082 15.7083 15.7082 15.7083ZM15.2082 15.7083V23.2917H16.2082V15.7083H15.2082ZM15.7082 22.7917H15.4374V23.7917H15.7082V22.7917ZM15.7991 22.9465L15.233 22.3533L14.5095 23.0436L15.0757 23.6369L15.7991 22.9465ZM15.2329 22.3532C11.8678 18.8279 7.20662 16.8333 2.33308 16.8333V17.8333C6.93333 17.8333 11.3331 19.716 14.5096 23.0437L15.2329 22.3532ZM2.33308 16.8333H1.62488V17.8333H2.33308V16.8333ZM2.12488 17.3333V8.66669H1.12488V17.3333H2.12488ZM2.33308 9.16669C7.18368 9.16669 11.643 7.23674 15.2273 3.60104L14.5152 2.89898C11.107 6.35601 6.89967 8.16669 2.33308 8.16669V9.16669ZM15.2169 3.61128L15.783 3.06961L15.0917 2.34707L14.5256 2.88874L15.2169 3.61128Z" fill="black"/>
</svg>
