<svg width="206" height="198" viewBox="0 0 206 198" fill="none" xmlns="http://www.w3.org/2000/svg">
<path fill-rule="evenodd" clip-rule="evenodd" d="M79.9349 36.5C95.3881 39.4535 107.546 51.6119 110.5 67.0651C113.454 51.6119 125.612 39.4535 141.065 36.5C125.612 33.5465 113.454 21.3881 110.5 5.93487C107.546 21.3881 95.3881 33.5465 79.9349 36.5ZM74 35.8372C93.4952 35.1375 109.138 19.4952 109.837 0H111.163C111.862 19.4952 127.505 35.1375 147 35.8372V37.1628C127.505 37.8625 111.862 53.5048 111.163 73H109.837C109.138 53.5048 93.4952 37.8625 74 37.1628V35.8372Z" fill="black"/>
<path fill-rule="evenodd" clip-rule="evenodd" d="M138.935 124.5C154.388 127.454 166.546 139.612 169.5 155.065C172.454 139.612 184.612 127.454 200.065 124.5C184.612 121.546 172.454 109.388 169.5 93.9349C166.546 109.388 154.388 121.546 138.935 124.5ZM133 123.837C152.495 123.138 168.138 107.495 168.837 88H170.163C170.862 107.495 186.505 123.138 206 123.837V125.163C186.505 125.862 170.862 141.505 170.163 161H168.837C168.138 141.505 152.495 125.862 133 125.163V123.837Z" fill="black"/>
<path d="M55 88L58.1159 106.917C60.9028 123.836 74.1637 137.097 91.0831 139.884L110 143L91.0831 146.116C74.1637 148.903 60.9028 162.164 58.1159 179.083L55 198L51.8841 179.083C49.0972 162.164 35.8363 148.903 18.9169 146.116L0 143L18.917 139.884C35.8363 137.097 49.0972 123.836 51.8841 106.917L55 88Z" fill="black"/>
</svg>
