<svg width="36" height="33" viewBox="0 0 36 33" fill="none" xmlns="http://www.w3.org/2000/svg">
<g clip-path="url(#clip0_77_13)">
<path d="M16 0C16 0.741517 16.7331 1.8496 17.4746 2.78062C18.4291 3.9793 19.5689 5.02681 20.8762 5.82622C21.8551 6.42481 23.0444 7 24 7M24 7C23.0444 7 21.8551 7.57519 20.8762 8.17378C19.5689 8.97319 18.4291 10.0207 17.4746 11.2194C16.7331 12.1504 16 13.2585 16 14M24 7H12.5C5.87258 7 0.5 12.3726 0.5 19V24" stroke="black"/>
</g>
<g clip-path="url(#clip1_77_13)">
<path d="M20 33C20 32.2585 19.2669 31.1504 18.5254 30.2194C17.5709 29.0207 16.4311 27.9732 15.1238 27.1738C14.1449 26.5752 12.9556 26 12 26M12 26C12.9556 26 14.1449 25.4248 15.1238 24.8262C16.4311 24.0268 17.5709 22.9793 18.5254 21.7806C19.2669 20.8496 20 19.7415 20 19M12 26H23.5C30.1274 26 35.5 20.6274 35.5 14V9" stroke="black"/>
</g>
<defs>
<clipPath id="clip0_77_13">
<rect width="24" height="24" fill="white"/>
</clipPath>
<clipPath id="clip1_77_13">
<rect width="24" height="24" fill="white" transform="translate(12 9)"/>
</clipPath>
</defs>
</svg>
